<?xml version="1.0" standalone="no"?><!DOCTYPE svg PUBLIC "-//W3C//DTD SVG 1.1//EN" "http://www.w3.org/Graphics/SVG/1.1/DTD/svg11.dtd"><svg t="1587809181264" class="icon" viewBox="0 0 1024 1024" version="1.1" xmlns="http://www.w3.org/2000/svg" p-id="711" xmlns:xlink="http://www.w3.org/1999/xlink" width="200" height="200"><defs><style type="text/css"></style></defs><path d="M624.54875 170.8090625v64.198125C772.5471875 281.0721875 879.659375 415.53875 879.659375 574.25c0 196.75125-164.60625 356.25-367.659375 356.25-203.0521875 0-367.659375-159.49875-367.659375-356.25 0-158.71125 107.1121875-293.17875 255.1115625-339.2428125v-64.198125C215.335625 218.680625 79.8125 381.16625 79.8125 574.25 79.8125 804.966875 273.3096875 992 512 992c238.69125 0 432.1875-187.033125 432.1875-417.75 0-193.08375-135.523125-355.569375-319.63875-403.4409375zM512 590c26.5209375 0 48.0215625-21.500625 48.0215625-48.0215625V80.0215625C560.0215625 53.4996875 538.5209375 32 512 32s-48.0215625 21.4996875-48.0215625 48.0215625v461.9578125c0 26.5209375 21.500625 48.020625 48.0215625 48.020625z" p-id="712" fill="#8a8a8a"></path></svg>