<?xml version="1.0" standalone="no"?><!DOCTYPE svg PUBLIC "-//W3C//DTD SVG 1.1//EN" "http://www.w3.org/Graphics/SVG/1.1/DTD/svg11.dtd"><svg t="1588648926808" class="icon" viewBox="0 0 1024 1024" version="1.1" xmlns="http://www.w3.org/2000/svg" p-id="5153" xmlns:xlink="http://www.w3.org/1999/xlink" width="200" height="200"><defs><style type="text/css"></style></defs><path d="M1024 972.8c0 28.275-22.925 51.2-51.2 51.2H51.2C22.922 1024 0 1001.075 0 972.8V51.2C0 22.922 22.922 0 51.2 0h921.6c28.275 0 51.2 22.922 51.2 51.2v921.6z m-51.2-870.4c0-28.277-22.925-51.2-51.2-51.2H102.4c-28.275 0-51.2 22.923-51.2 51.2v819.2c0 28.275 22.925 51.2 51.2 51.2h819.2c28.275 0 51.2-22.925 51.2-51.2V102.4z" p-id="5154" fill="#bfbfbf"></path><path d="M768 512c0 14.14-11.46 25.6-25.6 25.6H537.6v209.176c0 11.72-11.46 21.225-25.6 21.225s-25.6-9.505-25.6-21.225V537.6H281.6c-14.14 0-25.6-11.46-25.6-25.6s11.46-25.6 25.6-25.6h204.8V277.225C486.4 265.5 497.86 256 512 256s25.6 9.5 25.6 21.225V486.4h204.8c14.14 0 25.6 11.46 25.6 25.6z" p-id="5155" fill="#bfbfbf"></path></svg>